HIERARCHY
ROOT Hips
{
	OFFSET 0.00 0.00 0.00
	CHANNELS 6 Xposition Yposition Zposition Xrotation Yrotation Zrotation
	JOINT LeftUpLeg
	{
		OFFSET 3.34807 0.00000 0.00000
		CHANNELS 3 Xrotation Yrotation Zrotation
		JOINT LeftLeg
		{
			OFFSET 0.00000 -16.98552 0.00000
			CHANNELS 3 Xrotation Yrotation Zrotation
			JOINT LeftFoot
			{
				OFFSET 0.00000 -16.83686 0.00000
				CHANNELS 3 Xrotation Yrotation Zrotation
				JOINT LeftToeBase
				{
					OFFSET 0.00000 -1.59599 5.95633
					CHANNELS 3 Xrotation Yrotation Zrotation
					End Site
					{
						OFFSET 0.00000 0.00000 2.95275
					}
				}
			}
		}
	}
	JOINT RightUpLeg
	{
		OFFSET -3.34807 0.00000 0.00000
		CHANNELS 3 Xrotation Yrotation Zrotation
		JOINT RightLeg
		{
			OFFSET 0.00000 -16.98552 0.00000
			CHANNELS 3 Xrotation Yrotation Zrotation
			JOINT RightFoot
			{
				OFFSET 0.00000 -16.83686 0.00000
				CHANNELS 3 Xrotation Yrotation Zrotation
				JOINT RightToeBase
				{
					OFFSET 0.00000 -1.59599 5.95633
					CHANNELS 3 Xrotation Yrotation Zrotation
					End Site
					{
						OFFSET 0.00000 0.00000 2.95275
					}
				}
			}
		}
	}
	JOINT Spine
	{
		OFFSET 0.00000 0.03937 0.00000
		CHANNELS 3 Xrotation Yrotation Zrotation
		JOINT Spine1
		{
			OFFSET 0.00000 7.93124 0.00000
			CHANNELS 3 Xrotation Yrotation Zrotation
			JOINT Neck
			{
				OFFSET 0.00000 8.48368 0.00000
				CHANNELS 3 Xrotation Yrotation Zrotation
				JOINT Head
				{
					OFFSET 0.00000 6.65077 0.00000
					CHANNELS 3 Xrotation Yrotation Zrotation
					End Site
					{
						OFFSET 0.00000 4.52755 0.00000
					}
				}
			}
			JOINT LeftShoulder
			{
				OFFSET 0.00000 8.48368 0.00000
				CHANNELS 3 Xrotation Yrotation Zrotation
				JOINT LeftArm
				{
					OFFSET 7.74502 -0.00003 0.00000
					CHANNELS 3 Xrotation Yrotation Zrotation
					JOINT LeftForeArm
					{
						OFFSET 12.49824 -0.00005 0.00000
						CHANNELS 3 Xrotation Yrotation Zrotation
						JOINT LeftHand
						{
							OFFSET 9.88337 -0.00004 0.00000
							CHANNELS 3 Xrotation Yrotation Zrotation
							JOINT LeftHandThumb
							{
								OFFSET 0.00000 0.00000 0.00000
								CHANNELS 3 Xrotation Yrotation Zrotation
								End Site
								{
									OFFSET 0.00000 0.00000 3.93700
								}
							}
							JOINT L_Wrist_End
							{
								OFFSET 3.93700 -0.00001 0.00000
								CHANNELS 3 Xrotation Yrotation Zrotation
							}
						}
					}
				}
			}
			JOINT RightShoulder
			{
				OFFSET 0.00000 8.48368 0.00000
				CHANNELS 3 Xrotation Yrotation Zrotation
				JOINT RightArm
				{
					OFFSET -7.74502 -0.00003 0.00000
					CHANNELS 3 Xrotation Yrotation Zrotation
					JOINT RightForeArm
					{
						OFFSET -12.49824 -0.00005 0.00000
						CHANNELS 3 Xrotation Yrotation Zrotation
						JOINT RightHand
						{
							OFFSET -9.88337 -0.00004 0.00000
							CHANNELS 3 Xrotation Yrotation Zrotation
							JOINT RightHandThumb
							{
								OFFSET 0.00000 0.00000 0.00000
								CHANNELS 3 Xrotation Yrotation Zrotation
								End Site
								{
									OFFSET 0.00000 0.00000 3.93700
								}
							}
							JOINT R_Wrist_End
							{
								OFFSET -5.39369 -0.00002 0.00000
								CHANNELS 3 Xrotation Yrotation Zrotation
							}
						}
					}
				}
			}
		}
	}
}
MOTION
Frames: 17
Frame Time: 0.066664
 87.7818 30.6462 -3.2233 174.2216 -85.5282 171.4086 17.1175 20.0375 0.7886 30.8554 0.0000 -0.0000 -39.7354 2.8751 -16.8122 -2.4558 0.0000 0.0000 -46.1981 -1.0077 8.2112 34.1708 -0.0000 0.0000 -9.5314 -12.4910 10.2856 -5.8101 0.0000 0.0000 -1.7338 -5.4931 -0.1251 16.9983 -9.3939 0.8918 -12.8319 10.8141 2.9952 -10.6293 -3.2028 1.4433 -21.0127 10.1336 32.5056 -69.3760 -10.8449 -75.8366 -0.0002 -47.3750 -0.0001 -29.0101 -48.4039 37.0586 -0.0000 0.0000 -0.0000 -0.0000 0.0000 -0.0000 22.2047 -17.0961 -11.6381 -11.8020 16.6953 81.0332 0.0000 -3.0734 0.0000 74.5697 -77.1592 -114.3712 -0.0000 -0.0000 0.0000 -0.0000 -0.0000 0.0000
 84.3755 29.8807 -3.5523 133.6049 -87.0479 130.6450 21.1683 21.3094 2.8434 29.9273 0.0000 0.0000 -33.5511 0.4010 -22.0198 -12.2626 -0.0000 0.0000 -50.0239 -4.6754 5.8514 49.6162 -0.0000 0.0000 -10.1031 -20.5131 9.7996 -7.0989 0.0000 0.0000 -1.8987 -5.7801 -1.3242 15.6831 -8.1757 4.8268 -14.2616 9.6971 3.4329 -9.9356 -4.3807 -0.2914 -18.1529 13.0213 30.7052 -62.9818 -11.6638 -84.7204 -0.0003 -51.7998 -0.0001 -28.4807 -47.9566 37.0641 -0.0000 0.0000 -0.0000 -0.0000 0.0000 -0.0000 21.2581 -15.2821 -10.0744 -15.7774 20.4594 83.5677 0.0000 -6.8422 0.0000 77.3883 -77.5611 -110.6804 -0.0000 0.0000 -0.0000 -0.0000 0.0000 -0.0000
 80.4876 29.8348 -4.0113 93.0551 -87.5061 89.7128 19.0784 20.8357 8.3404 40.4396 -0.0000 0.0000 -13.9202 -5.6427 -21.2805 -33.5401 -0.0000 0.0000 -48.6254 -10.7804 3.3625 59.5557 -0.0000 0.0000 -17.3782 -16.4874 6.6379 6.4623 -0.0000 -0.0000 -1.7504 -5.3874 -1.2965 14.4792 -7.0257 7.0830 -15.4906 8.2128 3.4614 -10.0719 -5.7990 -1.5221 -15.9308 12.7966 27.2981 -48.2483 -16.0953 -93.8163 -0.0003 -52.3085 -0.0001 -25.0660 -47.0147 38.8334 -0.0000 0.0000 -0.0000 -0.0000 0.0000 -0.0000 19.0314 -11.0305 -9.6016 -23.1788 21.0133 87.6986 0.0000 -6.4064 0.0000 77.2066 -77.0885 -108.8010 -0.0000 -0.0000 0.0000 -0.0000 -0.0000 0.0000
 77.0034 30.1145 -4.3811 168.0936 -87.2275 164.2325 8.6214 14.5250 11.4662 68.5409 -0.0000 0.0000 -12.3189 1.0300 -25.2607 -0.5258 0.0000 -0.0000 -41.5554 -12.9289 4.3523 62.8654 -0.0000 0.0000 -24.1641 -13.5785 5.5096 6.7881 0.0000 -0.0000 -0.4434 -3.1511 1.0048 13.4066 -5.2255 5.7420 -14.7389 7.4931 2.5720 -10.8034 -6.1779 -1.9030 -13.6070 14.6551 22.9717 -35.0429 -24.5490 -100.0961 -0.0002 -35.6881 -0.0000 -24.6348 -38.9848 33.1786 -0.0000 0.0000 -0.0000 -0.0000 0.0000 -0.0000 15.4142 -3.2387 -10.9347 -36.8553 25.2433 90.3753 0.0000 -5.2958 0.0000 81.9686 -76.0518 -101.7586 -0.0000 0.0000 -0.0000 -0.0000 0.0000 -0.0000
 74.1389 31.2917 -4.8674 -171.1374 -84.2847 -175.8303 -10.3949 8.6772 15.4247 97.3150 -0.0000 0.0000 -15.0669 3.6867 -24.3777 2.8640 0.0000 0.0000 -31.1222 -11.5991 7.4031 57.0429 -0.0000 0.0000 -26.3027 -12.0067 5.9359 6.0862 0.0000 0.0000 -0.2210 -1.1220 1.8730 13.6249 -3.3153 5.2600 -14.4748 7.7826 3.2058 -9.3473 -6.7035 -4.1449 -10.5404 18.7951 20.8171 -20.7309 -30.3977 -102.5069 -0.0001 -16.5403 -0.0000 -6.2608 -32.6429 36.7692 -0.0000 -0.0000 0.0000 -0.0000 -0.0000 0.0000 10.6116 2.2587 -12.3935 -54.7924 17.3578 89.3233 0.0000 -0.5711 0.0000 88.9665 -80.2853 -100.8504 -0.0000 0.0000 -0.0000 -0.0000 0.0000 -0.0000
 71.6347 33.5888 -5.2506 -171.3788 -84.4478 -175.5823 -32.3242 1.5393 15.5332 110.6166 0.0000 0.0000 -18.4345 3.4228 -22.3063 2.1067 -0.0000 0.0000 -17.3007 -11.5373 7.7733 39.5128 -0.0000 0.0000 -21.5431 -9.0691 7.7850 5.3812 0.0000 -0.0000 -0.4776 0.9731 2.4451 13.6941 -2.0095 2.5100 -13.5393 5.9418 2.9346 -10.7503 -9.5271 -3.6732 -7.1106 22.8917 19.7673 -1.8471 -37.4154 -95.3226 -0.0000 -11.4515 -0.0000 -5.2585 -30.7127 32.2048 -0.0000 0.0000 -0.0000 -0.0000 0.0000 -0.0000 7.6880 3.6805 -15.1890 -68.1548 13.6246 86.0192 -0.0000 11.6742 0.0000 64.3796 -83.7741 -114.6993 -0.0000 0.0000 -0.0000 -0.0000 0.0000 -0.0000
 69.1497 36.1245 -5.2289 -176.3117 -82.4775 -176.1945 -47.9081 3.8110 10.6735 106.2346 0.0000 0.0000 -20.3707 5.7951 -16.7572 0.1144 -0.0000 0.0000 -5.7903 -12.2931 3.0720 22.1671 -0.0000 0.0000 -7.4254 -3.2077 15.8120 0.3337 -0.0000 0.0000 -1.1303 3.8819 2.0839 15.3921 -0.9778 -3.7436 -13.8789 4.4296 2.1296 -11.1223 -11.3493 -2.4115 -4.5981 24.7393 21.1056 19.9532 -39.8125 -84.1452 -0.0001 -15.0018 -0.0000 -6.7945 -32.7269 29.5640 -0.0000 0.0000 -0.0000 -0.0000 0.0000 -0.0000 5.8515 3.0385 -19.2708 -79.4412 11.8087 81.2301 -0.0001 22.1374 0.0000 36.8754 -82.6181 -138.0176 -0.0000 0.0000 -0.0000 -0.0000 0.0000 -0.0000
 66.7630 37.6774 -5.1423 179.1690 -78.8759 -179.5349 -54.0433 6.7396 9.2538 91.8291 -0.0000 0.0000 -15.0962 0.6114 -14.8894 -3.8867 0.0000 0.0000 -2.0857 -19.4064 0.0261 17.8179 -0.0000 0.0000 4.8521 3.9538 21.6014 -8.1123 0.0000 0.0000 -3.0732 5.4128 2.4707 19.0858 -0.0746 -5.8788 -14.2066 4.7916 1.9169 -12.2310 -10.3577 -3.8617 0.3146 26.5204 22.1162 32.1127 -32.8870 -81.6192 -0.0001 -15.7987 -0.0000 -12.7766 -33.8177 27.7061 -0.0000 0.0000 -0.0000 -0.0000 0.0000 -0.0000 2.5052 3.2167 -23.6105 -89.9787 14.0004 75.8671 -0.0001 25.4402 0.0000 27.9218 -81.8771 -149.5465 -0.0000 -0.0000 0.0000 -0.0000 -0.0000 0.0000
 64.1395 37.8166 -5.2930 -173.9810 -80.2347 -173.8509 -51.2075 6.6651 6.3892 71.7626 -0.0000 0.0000 -11.6429 -1.9254 -16.1294 -5.6610 0.0000 -0.0000 3.8582 -22.2723 0.7201 16.4107 -0.0000 0.0000 6.8948 4.3992 22.1700 -8.1726 0.0000 0.0000 -3.9394 5.2424 3.3820 20.9886 -0.2704 -6.1198 -13.9231 5.2137 3.0457 -10.9420 -11.1675 -4.9649 5.4925 26.4113 24.1845 39.6366 -31.3364 -80.1805 -0.0001 -14.6502 -0.0000 -16.0061 -28.6017 18.7811 -0.0000 0.0000 -0.0000 -0.0000 0.0000 -0.0000 1.0401 2.1836 -24.6674 -97.2811 16.5986 70.7233 -0.0001 24.4432 0.0000 23.7488 -82.0112 -155.1187 -0.0000 -0.0000 0.0000 -0.0000 -0.0000 0.0000
 61.4440 36.7375 -5.5392 -170.3261 -82.7021 -172.2600 -45.5425 6.8988 4.5322 47.7162 -0.0000 0.0000 -9.7276 -0.1460 -15.4315 -6.4078 0.0000 0.0000 10.2762 -18.0822 3.9296 15.9746 -0.0000 0.0000 -0.3596 -0.4749 22.2277 -7.6397 0.0000 0.0000 -5.8000 4.8075 4.0075 22.7260 0.2034 -4.7461 -13.5175 5.4188 4.1075 -11.6681 -12.6305 -5.7686 6.7703 27.2263 25.7300 44.6463 -33.3079 -75.1618 -0.0001 -13.6285 -0.0000 -17.6806 -23.4736 6.6828 -0.0000 0.0000 -0.0000 -0.0000 0.0000 -0.0000 -0.3116 -0.1201 -24.9389 -99.9126 17.7444 67.7747 -0.0001 23.3614 0.0000 10.1867 -82.5605 -170.0603 -0.0000 0.0000 -0.0000 -0.0000 0.0000 -0.0000
 58.8760 34.7370 -5.8174 179.5538 -85.2327 174.7963 -42.4305 5.1765 4.2890 27.1653 -0.0000 0.0000 -10.4938 -1.6140 -15.1293 -7.3360 -0.0000 -0.0000 13.8364 -18.0776 6.7155 19.8064 -0.0000 0.0000 -13.0537 0.3547 22.4116 -7.0303 -0.0000 -0.0000 -5.9672 3.7402 3.8628 21.0287 0.7483 -1.7470 -13.9529 4.6870 3.5392 -10.6505 -13.1248 -3.3640 4.8115 27.6091 26.4325 44.0771 -29.1936 -73.4894 -0.0000 -11.5503 -0.0000 -16.9309 -24.7552 12.9281 -0.0000 0.0000 -0.0000 -0.0000 0.0000 -0.0000 -1.1433 -1.9767 -23.6528 -99.7085 18.3010 68.5557 -0.0001 23.3568 0.0000 14.7970 -82.7516 -167.2809 -0.0000 0.0000 -0.0000 -0.0000 0.0000 -0.0000
 56.3242 32.4912 -5.9908 169.5942 -84.2862 163.5674 -43.4075 0.7218 5.7361 23.0084 -0.0000 -0.0000 -12.6303 0.3172 -12.7568 -7.8490 0.0000 0.0000 14.7754 -11.3183 7.9646 25.9435 -0.0000 0.0000 -26.4153 -5.2205 20.7542 -5.8222 0.0000 -0.0000 -5.0085 2.9688 2.9816 19.9298 0.7556 -0.0569 -13.8445 5.7529 2.9397 -13.5889 -11.8588 -1.5845 1.5411 27.2864 25.5654 37.6290 -24.1145 -77.3528 -0.0000 -11.0457 -0.0000 -15.3147 -31.6041 25.9315 -0.0000 -0.0000 0.0000 -0.0000 -0.0000 0.0000 0.3961 -2.7462 -21.8848 -99.5524 16.1552 73.3839 -0.0001 25.1792 0.0000 20.5859 -82.5877 -161.1437 -0.0000 -0.0000 0.0000 -0.0000 -0.0000 0.0000
 53.1538 30.6726 -5.8456 165.3159 -81.4358 160.1651 -47.2017 -0.0142 7.1094 35.9625 -0.0000 0.0000 -12.1587 5.2387 -10.2298 -11.1120 0.0000 0.0000 17.3494 -10.4058 5.4750 29.7721 0.0000 -0.0000 -32.6074 -7.3617 22.8495 -8.1201 0.0000 -0.0000 -5.4746 2.4293 2.6588 20.2291 -0.1771 -0.8906 -14.1771 7.7152 2.5154 -16.4692 -8.6213 -2.0640 -2.4360 26.2429 22.5091 27.1247 -20.6502 -82.9907 -0.0000 -12.1890 -0.0000 -15.4860 -36.0699 32.8104 -0.0000 0.0000 -0.0000 -0.0000 0.0000 -0.0000 4.5685 -3.5428 -19.0759 -96.2125 16.4863 82.0932 -0.0001 27.8540 0.0000 8.9765 -83.3404 -171.4938 -0.0000 -0.0000 0.0000 -0.0000 -0.0000 0.0000
 49.4643 29.8631 -5.4770 157.3063 -80.8074 154.8469 -53.3008 6.5622 7.2779 53.5254 -0.0000 0.0000 -12.3576 6.7762 -8.5730 1.2631 0.0000 0.0000 17.1517 -12.6264 -0.4387 37.6527 -0.0000 0.0000 -24.3859 -4.1408 28.0487 -23.1183 0.0000 -0.0000 -6.0269 1.7926 1.4790 20.1997 -1.7592 -2.9722 -14.5301 8.2756 2.2344 -20.0802 -6.9153 -2.1490 -6.4856 24.7418 18.7247 8.2684 -13.6891 -89.1579 -0.0000 -11.3959 -0.0000 -14.4760 -39.2502 36.8209 -0.0000 -0.0000 0.0000 -0.0000 -0.0000 0.0000 9.1010 -2.9216 -14.6555 -82.9805 21.2962 88.7166 -0.0001 29.8423 0.0000 40.1314 -81.3629 -136.1676 -0.0000 -0.0000 0.0000 -0.0000 -0.0000 0.0000
 45.5322 29.9080 -5.2382 149.5036 -84.2851 147.7486 -49.1999 7.6096 4.4429 60.2706 -0.0000 0.0000 -20.2052 5.1716 -5.6237 10.3830 -0.0000 0.0000 11.4227 -13.0277 -3.7365 56.8917 -0.0000 0.0000 -3.5703 -3.3977 25.7048 -23.6371 0.0000 0.0000 -4.0202 1.0186 0.5704 17.7405 -3.1122 -4.2295 -15.3493 7.3791 2.1855 -18.5959 -8.5916 -0.3494 -8.7653 18.8251 17.6348 -13.3555 -8.4211 -95.9928 -0.0001 -14.0404 -0.0000 -23.4447 -43.6071 40.4146 -0.0000 0.0000 -0.0000 -0.0000 0.0000 -0.0000 13.0751 -2.0712 -10.9736 -62.0025 25.8892 91.7933 -0.0001 21.3843 0.0000 43.8952 -81.3257 -125.5879 -0.0000 0.0000 -0.0000 -0.0000 0.0000 -0.0000
 42.1017 30.6118 -5.0187 135.6562 -88.0329 135.7666 -40.5699 7.0042 -0.0099 59.8175 -0.0000 0.0000 -25.0839 5.1683 -5.3687 10.2123 -0.0000 0.0000 -2.2378 -9.1886 -7.4854 82.5076 -0.0000 0.0000 1.3057 -2.5486 24.2878 0.5371 -0.0000 -0.0000 -2.5737 -0.0552 -1.9999 17.6828 -4.1828 -4.4119 -14.4904 7.3315 2.7182 -17.9986 -10.5733 0.0820 -13.1055 10.8267 20.7499 -34.1036 -5.0693 -101.1704 -0.0001 -22.7797 -0.0000 -34.7816 -45.6497 38.8301 -0.0000 0.0000 -0.0000 -0.0000 0.0000 -0.0000 16.4092 -4.5524 -9.3786 -46.5723 31.8357 95.6004 -0.0000 7.2617 0.0000 79.3879 -78.8387 -99.0507 -0.0000 0.0000 -0.0000 -0.0000 0.0000 -0.0000
 38.7940 32.5382 -4.9845 179.5782 -89.0720 178.7549 -27.0000 8.4968 0.9320 48.4551 0.0000 0.0000 -25.7958 2.5321 -6.5045 9.9990 0.0000 -0.0000 -17.4336 -4.9527 -7.0101 98.9552 -0.0000 0.0000 0.5489 -4.9676 24.8230 3.3238 -0.0000 0.0000 -2.3102 -2.9825 -2.6148 17.3473 -6.5638 -2.8222 -14.2471 9.0763 2.7311 -13.3918 -9.5802 2.7406 -15.2024 7.0533 24.1398 -49.6411 -7.9901 -95.7012 -0.0001 -34.8836 -0.0000 -34.6468 -48.1395 37.3280 -0.0000 0.0000 -0.0000 -0.0000 0.0000 -0.0000 19.8916 -8.7242 -8.3687 -33.9972 35.8425 96.4743 0.0000 -0.9746 0.0000 107.6533 -74.3734 -86.2292 -0.0000 0.0000 -0.0000 -0.0000 0.0000 -0.0000
